<?xml version="1.0" encoding="utf-8"?>
<!-- Generator: Adobe Illustrator 26.4.1, SVG Export Plug-In . SVG Version: 6.00 Build 0)  -->
<svg version="1.1" id="Ebene_1" xmlns="http://www.w3.org/2000/svg" xmlns:xlink="http://www.w3.org/1999/xlink" x="0px" y="0px"
	 viewBox="0 0 141.7 141.7" style="enable-background:new 0 0 141.7 141.7;" xml:space="preserve">
<style type="text/css">
	.st0{fill:#ED2124;stroke:#EAEAEA;stroke-width:7;stroke-miterlimit:10;}
	.st1{fill:#FFFFFF;}
</style>
<g id="Mittel">
	<g>
		<path class="st0" d="M118,23.8c26,26,26,68.2,0,94.2c-26,26-68.2,26-94.2,0"/>
		<path class="st0" d="M23.8,118c-26-26-26-68.2,0-94.2c26-26,68.2-26,94.2,0"/>
	</g>
</g>
<path class="st1" d="M59.3,61.9l10.7,9.2L66.6,86c0.5,1.8,0.9,3.1,3.4,3.2c1.9,0.1,3.1-1.1,3.4-3.4l4.1-16.2c0,0,0.5-2.6-1.5-4
	l-9-9.8l5.1-6.2c0,0,7.8,6.5,11.1,9.7c2,1.6,4.8-1.4,3.4-3.2c-0.8-0.9-12.8-17-14.1-18s-1.9-1.9-4.5-1.2c0,0-2.2,0.3-3.2,2.4
	L56,54.8c-0.6,1.1-0.7,2.3-0.4,3.6C56.2,60.2,57.6,61.5,59.3,61.9z"/>
<path class="st1" d="M94.1,68.3c-2.3,0-4.4,0.5-6.4,1.3L82.3,59h1.3c0.7,0,2.2-2.7,0-2.7h-3.5c-0.5,0-0.9,0.2-1.1,0.6
	c-0.2,0.4-0.3,0.9,0,1.3l3.1,6H62.5l-1.3-2.4h3.1c0.7,0,1.3-0.6,1.3-1.3c0-0.7-0.6-1.3-1.3-1.3h-8.8c-0.7,0-1.3,0.6-1.3,1.3
	c0,0.7,0.6,1.3,1.3,1.3h2.7l1.9,3.7l-3.1,4.8c-2.3-1.3-5-2-7.9-2c-9.2,0-16.7,7.5-16.7,16.7c0,9.2,7.5,16.7,16.7,16.7
	c8.7,0,15.9-6.8,16.6-15.3h3.9l-0.3,1h2.8l0.5-1.7L84,68.3l1.3,2.5c-4.7,2.9-7.9,8.2-7.9,14.2c0,9.2,7.5,16.7,16.7,16.7
	c9.2,0,16.7-7.5,16.7-16.7C110.8,75.8,103.3,68.3,94.1,68.3z M49.2,99c-7.7,0-14-6.3-14-14c0-7.7,6.3-14,14-14
	c2.3,0,4.5,0.6,6.4,1.6l-7.5,11.7c-0.3,0.4-0.3,0.9-0.1,1.4c0.2,0.4,0.7,0.7,1.2,0.7h13.9C62.5,93.4,56.5,99,49.2,99z M51.7,83.7
	l6.2-9.6c2.9,2.3,4.9,5.7,5.2,9.6H51.7z M65.8,83.7c-0.4-4.8-2.8-9.1-6.5-11.9l2.2-3.4l7.8,15.3H65.8z M71.7,82.3L63.9,67h17.8
	L71.7,82.3z M94.1,99c-7.7,0-14-6.3-14-14c0-4.9,2.6-9.3,6.4-11.8l6.4,12.4c0.2,0.5,0.7,0.7,1.2,0.7c0.2,0,0.4,0,0.6-0.1
	c0.7-0.3,0.9-1.2,0.6-1.8L88.9,72c1.6-0.6,3.4-1,5.2-1c7.7,0,14,6.3,14,14C108.1,92.7,101.8,99,94.1,99z"/>
<g>
	<path class="st1" d="M84.9,29.2c0,0-6.8,0.1-8.4,0.1s-6.4,3.5-6.4,3.5s-2.3-7,3.7-9.2C84.4,21.1,84.9,29.2,84.9,29.2z"/>
	<path class="st1" d="M83.1,30.5c-1.8,0-5.4,0.1-6.6,0.1c-1,0-3.2,1.6-4.8,2.8c0,0.3,0.1,0.6,0.1,0.9c0.9,3.2,4.1,5,7.3,4.2
		c3.2-0.9,5.1-4.1,4.2-7.3C83.3,30.9,83.2,30.7,83.1,30.5z"/>
</g>
<rect x="32.5" y="106" class="st1" width="78.1" height="3"/>
</svg>
