<?xml version="1.0" encoding="UTF-8"?>
<svg version="1.1" xmlns="http://www.w3.org/2000/svg" width="870" height="663">
<path d="M0 0 C287.1 0 574.2 0 870 0 C870 218.79 870 437.58 870 663 C582.9 663 295.8 663 0 663 C0 444.21 0 225.42 0 0 Z " fill="#24508A" transform="translate(0,0)"/>
<path d="M0 0 C287.1 0 574.2 0 870 0 C870 218.79 870 437.58 870 663 C582.9 663 295.8 663 0 663 C0 444.21 0 225.42 0 0 Z M19 18 C19 224.58 19 431.16 19 644 C293.56 644 568.12 644 851 644 C851 437.42 851 230.84 851 18 C576.44 18 301.88 18 19 18 Z " fill="#FEFEFE" transform="translate(0,0)"/>
<path d="M0 0 C22.77 0 45.54 0 69 0 C69 6.6 69 13.2 69 20 C46.23 20 23.46 20 0 20 C0 13.4 0 6.8 0 0 Z " fill="#FFFFFF" transform="translate(745,464)"/>
<path d="M0 0 C22.77 0 45.54 0 69 0 C69 6.6 69 13.2 69 20 C46.23 20 23.46 20 0 20 C0 13.4 0 6.8 0 0 Z " fill="#FFFFFF" transform="translate(656,464)"/>
<path d="M0 0 C22.77 0 45.54 0 69 0 C69 6.6 69 13.2 69 20 C46.23 20 23.46 20 0 20 C0 13.4 0 6.8 0 0 Z " fill="#FFFFFF" transform="translate(567,464)"/>
<path d="M0 0 C22.77 0 45.54 0 69 0 C69 6.6 69 13.2 69 20 C46.23 20 23.46 20 0 20 C0 13.4 0 6.8 0 0 Z " fill="#FFFFFF" transform="translate(478,464)"/>
<path d="M0 0 C22.77 0 45.54 0 69 0 C69 6.6 69 13.2 69 20 C46.23 20 23.46 20 0 20 C0 13.4 0 6.8 0 0 Z " fill="#FFFFFF" transform="translate(389,464)"/>
<path d="M0 0 C22.77 0 45.54 0 69 0 C69 6.6 69 13.2 69 20 C46.23 20 23.46 20 0 20 C0 13.4 0 6.8 0 0 Z " fill="#FFFFFF" transform="translate(301,464)"/>
<path d="M0 0 C22.77 0 45.54 0 69 0 C69 6.6 69 13.2 69 20 C46.23 20 23.46 20 0 20 C0 13.4 0 6.8 0 0 Z " fill="#FFFFFF" transform="translate(212,464)"/>
<path d="M0 0 C22.77 0 45.54 0 69 0 C69 6.6 69 13.2 69 20 C46.23 20 23.46 20 0 20 C0 13.4 0 6.8 0 0 Z " fill="#FFFFFF" transform="translate(123,464)"/>
<path d="M0 0 C22.77 0 45.54 0 69 0 C69 6.6 69 13.2 69 20 C46.23 20 23.46 20 0 20 C0 13.4 0 6.8 0 0 Z " fill="#FFFFFF" transform="translate(34,464)"/>
<path d="M0 0 C22.77 0 45.54 0 69 0 C69 6.6 69 13.2 69 20 C46.23 20 23.46 20 0 20 C0 13.4 0 6.8 0 0 Z " fill="#FFFFFF" transform="translate(745,157)"/>
<path d="M0 0 C22.77 0 45.54 0 69 0 C69 6.6 69 13.2 69 20 C46.23 20 23.46 20 0 20 C0 13.4 0 6.8 0 0 Z " fill="#FFFFFF" transform="translate(656,157)"/>
<path d="M0 0 C22.77 0 45.54 0 69 0 C69 6.6 69 13.2 69 20 C46.23 20 23.46 20 0 20 C0 13.4 0 6.8 0 0 Z " fill="#FFFFFF" transform="translate(567,157)"/>
<path d="M0 0 C22.77 0 45.54 0 69 0 C69 6.6 69 13.2 69 20 C46.23 20 23.46 20 0 20 C0 13.4 0 6.8 0 0 Z " fill="#FFFFFF" transform="translate(478,157)"/>
<path d="M0 0 C22.77 0 45.54 0 69 0 C69 6.6 69 13.2 69 20 C46.23 20 23.46 20 0 20 C0 13.4 0 6.8 0 0 Z " fill="#FFFFFF" transform="translate(389,157)"/>
<path d="M0 0 C22.77 0 45.54 0 69 0 C69 6.6 69 13.2 69 20 C46.23 20 23.46 20 0 20 C0 13.4 0 6.8 0 0 Z " fill="#FFFFFF" transform="translate(301,157)"/>
<path d="M0 0 C22.77 0 45.54 0 69 0 C69 6.6 69 13.2 69 20 C46.23 20 23.46 20 0 20 C0 13.4 0 6.8 0 0 Z " fill="#FFFFFF" transform="translate(212,157)"/>
<path d="M0 0 C22.77 0 45.54 0 69 0 C69 6.6 69 13.2 69 20 C46.23 20 23.46 20 0 20 C0 13.4 0 6.8 0 0 Z " fill="#FFFFFF" transform="translate(123,157)"/>
<path d="M0 0 C22.77 0 45.54 0 69 0 C69 6.6 69 13.2 69 20 C46.23 20 23.46 20 0 20 C0 13.4 0 6.8 0 0 Z " fill="#FFFFFF" transform="translate(34,157)"/>
</svg>
