<?xml version="1.0" encoding="UTF-8" standalone="no"?>
<svg
   xmlns:dc="http://purl.org/dc/elements/1.1/"
   xmlns:cc="http://creativecommons.org/ns#"
   xmlns:rdf="http://www.w3.org/1999/02/22-rdf-syntax-ns#"
   xmlns:svg="http://www.w3.org/2000/svg"
   xmlns="http://www.w3.org/2000/svg"
   viewBox="0 0 501.00128 351.00244"
   height="351.00244"
   width="501.00128"
   xml:space="preserve"
   version="1.1"
   id="svg6164"><metadata
     id="metadata6170"><rdf:RDF><cc:Work
         rdf:about=""><dc:format>image/svg+xml</dc:format><dc:type
           rdf:resource="http://purl.org/dc/dcmitype/StillImage" /><dc:title></dc:title></cc:Work></rdf:RDF></metadata><defs
     id="defs6168" /><g
     transform="matrix(1.25,0,0,-1.25,0,351.00243)"
     id="g6172"><g
       id="g6174"><path
         id="path6176"
         style="fill:#ffffff;fill-opacity:1;fill-rule:nonzero;stroke:none"
         d="m 39.602,280.4 c 0,0 -39.129,0.57 -39.2,-39.2 l 0,-201.601 C 0.473,-0.171 39.602,0.4 39.602,0.4 l 321.597,0 c 0,0 39.129,-0.571 39.203,39.199 l 0,201.601 c -0.074,39.77 -39.203,39.2 -39.203,39.2 l -321.597,0 z" /><path
         id="path6178"
         style="fill:#000000;fill-opacity:1;fill-rule:nonzero;stroke:none"
         d="m 39.598,269.204 c 0,0 -27.899,0.278 -27.996,-28.004 l 0,-201.601 c 0.097,-28.278 27.996,-28 27.996,-28 l 321.605,0 c 0,0 27.899,-0.278 27.996,28 l 0,201.601 c -0.097,28.282 -27.996,28.004 -27.996,28.004 l -321.605,0 z m 0,-12 321.605,0 c 15.602,0 15.996,-16.004 15.996,-16.004 l 0,-201.601 c 0,0 -0.394,-16 -15.996,-16 l -321.605,0 c -15.602,0 -15.996,16 -15.996,16 l 0,201.601 c 0,0 0.394,16.004 15.996,16.004 z" /><path
         id="path6180"
         style="fill:#000000;fill-opacity:1;fill-rule:nonzero;stroke:none"
         d="m 156.359,77.548 8.079,0 0,-8 -8.079,0 0,-32 -8,0 0,32 -3.918,0 0,8 3.918,0 0,4.004 c 0,1.652 0.317,3.195 0.957,4.637 0.641,1.496 1.496,2.773 2.559,3.84 1.121,1.066 2.402,1.921 3.844,2.558 1.488,0.645 3.062,0.961 4.719,0.961 l 4,0 0,-8 -4,0 c -1.122,0 -2.079,-0.398 -2.879,-1.195 -0.801,-0.801 -1.2,-1.735 -1.2,-2.801 l 0,-4.004 z" /><path
         id="path6182"
         style="fill:#000000;fill-opacity:1;fill-rule:nonzero;stroke:none"
         d="m 195.734,67.79 c -0.75,0.801 -1.629,1.414 -2.644,1.84 -0.961,0.477 -2.024,0.719 -3.199,0.719 -2.184,0 -4.051,-0.746 -5.602,-2.242 -1.492,-1.493 -2.289,-3.305 -2.394,-5.434 l 0,-25.125 -8.004,0 0,40 8.004,0 0,-1.359 c 1.171,0.695 2.421,1.226 3.757,1.601 1.332,0.371 2.746,0.559 4.239,0.559 2.398,0 4.613,-0.481 6.64,-1.442 2.028,-0.957 3.785,-2.265 5.278,-3.918 l -6.075,-5.199 z" /><path
         id="path6184"
         style="fill:#000000;fill-opacity:1;fill-rule:nonzero;stroke:none"
         d="m 248.363,93.548 8,0 0,-8 -8,0 0,8 z m 0,-15.199 8,0 0,-40.801 -8,0 0,40.801 z" /><path
         id="path6186"
         style="fill:#000000;fill-opacity:1;fill-rule:nonzero;stroke:none"
         d="m 219.719,78.349 c -1.942,0 -3.883,-0.344 -5.821,-1.024 -1.941,-0.679 -3.695,-1.832 -5.265,-3.457 -1.574,-1.574 -2.86,-3.668 -3.852,-6.289 -1,-2.621 -1.496,-5.871 -1.496,-9.746 0,-4.09 0.524,-7.441 1.574,-10.066 1.098,-2.617 2.489,-4.688 4.164,-6.211 1.731,-1.516 3.645,-2.567 5.739,-3.141 2.101,-0.578 4.168,-0.867 6.211,-0.867 2.672,0 5.242,0.496 7.707,1.492 2.461,1 4.687,2.649 6.679,4.953 l -5.816,4.957 c -1.207,-1.207 -2.594,-2.156 -4.168,-2.832 -1.52,-0.683 -3.039,-1.023 -4.559,-1.023 -2.777,0 -5.058,0.812 -6.839,2.434 -1.782,1.628 -2.672,4.089 -2.672,7.394 l 24.84,0 0,6.602 c 0,2.57 -0.446,4.875 -1.336,6.918 -0.895,2.093 -2.098,3.878 -3.618,5.343 -1.468,1.469 -3.191,2.598 -5.187,3.383 -1.992,0.785 -4.086,1.18 -6.285,1.18 z m 0,-7.547 c 2.359,0 4.32,-0.785 5.894,-2.359 1.348,-1.348 2.157,-3.243 2.422,-5.672 l -16.64,0 c 0.265,2.429 1.074,4.324 2.425,5.672 1.571,1.574 3.539,2.359 5.899,2.359 z" /><path
         id="path6188"
         style="fill:#000000;fill-opacity:1;fill-rule:nonzero;stroke:none"
         d="m 39.602,280.802 c -0.012,0 -9.868,0.144 -19.75,-4.731 C 9.965,271.196 0.039,261.216 0,241.2 L 0,39.599 C 0.039,19.583 9.965,9.607 19.852,4.728 29.734,-0.147 39.59,0.001 39.602,0.001 l 321.597,0 c 0.008,0 9.867,-0.148 19.75,4.727 9.891,4.879 19.813,14.855 19.852,34.871 l 0,201.601 c -0.039,20.016 -9.961,29.996 -19.852,34.871 -9.883,4.879 -19.742,4.731 -19.75,4.731 l -321.597,0 z m 0,-0.402 321.597,0 c 0,0 39.125,0.57 39.199,-39.2 l 0,-201.597 C 400.324,-0.171 361.199,0.4 361.199,0.4 l -321.597,0 c 0,0 -39.129,-0.571 -39.204,39.203 l 0,201.597 c 0.075,39.77 39.204,39.2 39.204,39.2 z" /><path
         id="path6190"
         style="fill:#000000;fill-opacity:1;fill-rule:evenodd;stroke:none"
         d="m 156.566,244.368 c -17.511,-0.703 -17.457,-19.324 -3.363,-21.23 l -13.887,-30.192 c -5.336,2.872 -10.816,3.997 -17.668,3.997 -11.628,0 -20.906,-3.969 -29.128,-12.043 -8.204,-8.09 -12.028,-18.25 -12.028,-30.032 0,-10.64 3.254,-21.457 11.461,-29.672 8.223,-8.23 18.067,-12.343 29.695,-12.343 11.629,0 21.469,4.113 29.414,12.343 7.926,8.215 12.047,18.204 12.047,29.844 0,14.235 -6.394,26.278 -18.023,35.028 l 1.812,4.207 44.981,-37.153 c -0.504,-1.414 -0.793,-2.957 -0.793,-4.582 0,-7.359 5.625,-12.988 12.976,-12.988 l 0.153,0 1.984,-7.52 -4.367,0 0,-6.586 16.965,0 0,6.586 -6.016,0 -2.136,9.204 c 0.523,0.3 1.003,0.656 1.476,1.023 2.281,1.355 3.66,3.348 4.234,6.059 0.004,0.019 0.016,0.039 0.02,0.058 0.156,0.477 0.297,0.973 0.398,1.477 l 19.461,0.511 c 1.954,-21.867 19.438,-38.078 41.938,-38.078 23.883,0 42.14,18.258 42.14,42.168 0,23.907 -18.257,42.168 -42.14,42.168 -8.27,0 -15.852,-2.187 -22.246,-6.043 l -11.84,15.735 5.902,9.41 10.989,3.164 c 1.57,0.457 3.437,0.25 3.441,3.937 -0.172,2.184 -1.379,3.371 -3.176,3.77 -13.023,1.086 -26.512,2.086 -39.703,3.105 l -1.644,-4.39 22.433,-9.586 -3.824,-6.434 -84.152,0.528 c 3.027,6.398 2.91,6.433 8.757,19.316 l -4.937,0 c -4.867,0.164 -10.301,1.074 -8.754,5.488 1.543,4.414 9.41,3.227 12.594,2.746 1.773,-1.093 4.375,-1.648 7.66,-1.648 2.191,0 4.508,0.281 7.113,1.101 l 0,6.567 c -2.605,0.68 -4.922,1.101 -7.113,1.101 -2.59,0 -4.641,-0.273 -6.012,-0.55 -2.472,0.613 -4.836,0.504 -7.094,0.429 z m -28.07,-20.863 0,-19.707 2.723,0 c 6.57,0 9.855,3.305 9.855,9.883 0,6.578 -3.285,9.863 -9.855,9.863 l -2.723,-0.039 z m 22.606,-20.371 83.316,-0.699 -23.965,-38.496 c -0.012,0.007 -0.023,0.011 -0.035,0.019 -1.516,0.821 -3.23,1.348 -5.07,1.516 l -0.379,0.113 -1.625,8.086 3.82,0 0,6.57 -16.418,0 0,-6.57 6.016,0 2.062,-9.184 c -1.105,-0.468 -2.136,-1.082 -3.047,-1.816 l -46.058,37.547 1.383,2.914 z m 89.39,-2.688 4.313,-5.777 5.695,-7.781 c -8.039,-9.395 -13.789,-20.301 -14.398,-30.352 l -14.829,-0.398 -4.671,-0.113 c -0.364,1.379 -0.946,2.664 -1.704,3.804 l 25.594,40.617 z m 37.926,-9.98 c 19.699,0 34.762,-15.402 34.762,-35.559 0,-20.156 -15.063,-35.578 -34.762,-35.578 -18.301,0 -32.586,13.309 -34.52,31.356 l 28.372,0.66 c 1.097,-2.344 3.441,-3.899 6.281,-3.899 3.945,0 6.957,3.02 6.957,6.969 0,3.949 -3.012,6.949 -6.957,6.949 -0.211,0 -0.406,-0.023 -0.606,-0.039 l -18.027,23.934 c 5.305,3.312 11.613,5.211 18.5,5.211 l 0,-0.004 z m -156.391,-0.641 c 5.274,0 10.211,-1.125 14.602,-3.164 l -0.832,-1.668 -13.617,-22.984 c -0.2,0.016 -0.403,0.035 -0.606,0.035 -3.957,0 -7.168,-3.215 -7.168,-7.176 0,-3.961 3.211,-7.175 7.168,-7.175 3.957,0 7.168,3.214 7.168,7.175 0,1.61 -0.547,3.086 -1.437,4.282 l 14.886,24.218 c 8.559,-6.25 13.977,-16.515 13.977,-28.5 0,-19.812 -14.789,-34.972 -34.141,-34.972 -19.351,0 -34.14,15.16 -34.14,34.972 0,19.817 14.789,34.957 34.14,34.957 z m 132.766,-8.464 17.648,-23.555 c -0.082,-0.149 -0.14,-0.305 -0.211,-0.453 l -28.523,-0.684 c 0.438,9.942 4.566,18.621 11.086,24.692 z" /></g></g></svg>